<mxfile host="65bd71144e">
    <diagram id="0j9-6c4I7VFsJuol0pOw" name="第 1 页">
        <mxGraphModel dx="1118" dy="800" grid="1" gridSize="10" guides="1" tooltips="1" connect="1" arrows="1" fold="1" page="1" pageScale="1" pageWidth="1169" pageHeight="827" math="0" shadow="0">
            <root>
                <mxCell id="0"/>
                <mxCell id="1" parent="0"/>
                <mxCell id="14" style="edgeStyle=none;html=1;exitX=0.5;exitY=1;exitDx=0;exitDy=0;fontSize=15;strokeColor=#00FF00;" edge="1" parent="1" source="2" target="3">
                    <mxGeometry relative="1" as="geometry"/>
                </mxCell>
                <mxCell id="2" value="了解算法的功效&lt;br style=&quot;font-size: 15px;&quot;&gt;与用途" style="rounded=1;whiteSpace=wrap;html=1;fontSize=15;strokeColor=#CCFFFF;" vertex="1" parent="1">
                    <mxGeometry x="270" y="160" width="120" height="60" as="geometry"/>
                </mxCell>
                <mxCell id="15" style="edgeStyle=none;html=1;exitX=0.5;exitY=1;exitDx=0;exitDy=0;entryX=0.5;entryY=0;entryDx=0;entryDy=0;fontSize=15;strokeColor=#00FF00;" edge="1" parent="1" source="3" target="4">
                    <mxGeometry relative="1" as="geometry"/>
                </mxCell>
                <mxCell id="3" value="了解其大概过程" style="rounded=1;whiteSpace=wrap;html=1;fontSize=15;strokeColor=#66FFFF;" vertex="1" parent="1">
                    <mxGeometry x="270" y="280" width="120" height="60" as="geometry"/>
                </mxCell>
                <mxCell id="16" style="edgeStyle=none;html=1;exitX=1;exitY=0.5;exitDx=0;exitDy=0;entryX=0;entryY=0.5;entryDx=0;entryDy=0;fontSize=15;strokeColor=#00FF00;" edge="1" parent="1" source="4" target="9">
                    <mxGeometry relative="1" as="geometry"/>
                </mxCell>
                <mxCell id="4" value="具体实现细节？&lt;br style=&quot;font-size: 15px;&quot;&gt;公式？理论？" style="rounded=1;whiteSpace=wrap;html=1;fontSize=15;strokeColor=#66B2FF;" vertex="1" parent="1">
                    <mxGeometry x="270" y="400" width="120" height="60" as="geometry"/>
                </mxCell>
                <mxCell id="25" style="edgeStyle=none;html=1;exitX=0;exitY=0.5;exitDx=0;exitDy=0;entryX=1;entryY=0.5;entryDx=0;entryDy=0;fontSize=15;strokeColor=#00FF00;" edge="1" parent="1" source="5" target="8">
                    <mxGeometry relative="1" as="geometry"/>
                </mxCell>
                <mxCell id="5" value="阅读源代码" style="rounded=1;whiteSpace=wrap;html=1;fontSize=15;strokeColor=#3333FF;" vertex="1" parent="1">
                    <mxGeometry x="270" y="520" width="120" height="60" as="geometry"/>
                </mxCell>
                <mxCell id="31" style="edgeStyle=none;html=1;exitX=1;exitY=0.5;exitDx=0;exitDy=0;fontSize=15;strokeColor=#00FF00;" edge="1" parent="1" source="6" target="12">
                    <mxGeometry relative="1" as="geometry"/>
                </mxCell>
                <mxCell id="6" value="使用源代码实践" style="rounded=1;whiteSpace=wrap;html=1;fontSize=15;strokeColor=#4C0099;" vertex="1" parent="1">
                    <mxGeometry x="710" y="640" width="120" height="60" as="geometry"/>
                </mxCell>
                <mxCell id="29" style="edgeStyle=none;html=1;exitX=0.5;exitY=0;exitDx=0;exitDy=0;entryX=1;entryY=0.5;entryDx=0;entryDy=0;fontSize=15;fontColor=#FF0000;strokeColor=#FF0000;" edge="1" parent="1" source="7" target="5">
                    <mxGeometry relative="1" as="geometry">
                        <Array as="points">
                            <mxPoint x="550" y="550"/>
                        </Array>
                    </mxGeometry>
                </mxCell>
                <mxCell id="30" style="edgeStyle=none;html=1;exitX=1;exitY=0.5;exitDx=0;exitDy=0;entryX=0;entryY=0.5;entryDx=0;entryDy=0;fontSize=15;strokeColor=#00FF00;" edge="1" parent="1" source="7" target="6">
                    <mxGeometry relative="1" as="geometry"/>
                </mxCell>
                <mxCell id="7" value="能否写出？" style="rhombus;whiteSpace=wrap;html=1;fontSize=15;strokeColor=#FFB366;" vertex="1" parent="1">
                    <mxGeometry x="480" y="630" width="140" height="80" as="geometry"/>
                </mxCell>
                <mxCell id="26" style="edgeStyle=none;html=1;exitX=0.5;exitY=1;exitDx=0;exitDy=0;entryX=0;entryY=0.5;entryDx=0;entryDy=0;fontSize=15;strokeColor=#00FF00;" edge="1" parent="1" source="8" target="23">
                    <mxGeometry relative="1" as="geometry">
                        <Array as="points">
                            <mxPoint x="150" y="670"/>
                        </Array>
                    </mxGeometry>
                </mxCell>
                <mxCell id="27" style="edgeStyle=none;html=1;exitX=0.5;exitY=0;exitDx=0;exitDy=0;entryX=0;entryY=0.5;entryDx=0;entryDy=0;fontSize=15;strokeColor=#FF0000;" edge="1" parent="1" source="8" target="4">
                    <mxGeometry relative="1" as="geometry">
                        <Array as="points">
                            <mxPoint x="150" y="430"/>
                        </Array>
                    </mxGeometry>
                </mxCell>
                <mxCell id="8" value="能否看懂？" style="rhombus;whiteSpace=wrap;html=1;fontSize=15;strokeColor=#FFB366;" vertex="1" parent="1">
                    <mxGeometry x="80" y="510" width="140" height="80" as="geometry"/>
                </mxCell>
                <mxCell id="17" style="edgeStyle=none;html=1;exitX=0.5;exitY=0;exitDx=0;exitDy=0;entryX=0.5;entryY=1;entryDx=0;entryDy=0;fontSize=15;strokeColor=#FF0000;" edge="1" parent="1" source="9" target="10">
                    <mxGeometry relative="1" as="geometry"/>
                </mxCell>
                <mxCell id="18" style="edgeStyle=none;html=1;exitX=0.5;exitY=1;exitDx=0;exitDy=0;entryX=0.5;entryY=0;entryDx=0;entryDy=0;fontSize=15;strokeColor=#00FF00;" edge="1" parent="1" source="9" target="5">
                    <mxGeometry relative="1" as="geometry">
                        <Array as="points">
                            <mxPoint x="550" y="490"/>
                            <mxPoint x="330" y="490"/>
                        </Array>
                    </mxGeometry>
                </mxCell>
                <mxCell id="9" value="能否看懂？" style="rhombus;whiteSpace=wrap;html=1;fontSize=15;strokeColor=#FFB366;" vertex="1" parent="1">
                    <mxGeometry x="480" y="390" width="140" height="80" as="geometry"/>
                </mxCell>
                <mxCell id="10" value="&lt;font color=&quot;#0066cc&quot;&gt;网上搜资料&lt;br style=&quot;font-size: 15px&quot;&gt;&lt;/font&gt;&lt;font color=&quot;#ff0000&quot;&gt;八面受敌法&lt;/font&gt;" style="rounded=1;whiteSpace=wrap;html=1;fontSize=15;" vertex="1" parent="1">
                    <mxGeometry x="490" y="280" width="120" height="60" as="geometry"/>
                </mxCell>
                <mxCell id="13" style="edgeStyle=none;html=1;exitX=1;exitY=0.5;exitDx=0;exitDy=0;entryX=0;entryY=0.5;entryDx=0;entryDy=0;fontSize=15;strokeColor=#00FF00;" edge="1" parent="1" source="11" target="2">
                    <mxGeometry relative="1" as="geometry"/>
                </mxCell>
                <mxCell id="11" value="开始" style="ellipse;whiteSpace=wrap;html=1;fontSize=15;" vertex="1" parent="1">
                    <mxGeometry x="60" y="150" width="120" height="80" as="geometry"/>
                </mxCell>
                <mxCell id="12" value="结束" style="ellipse;whiteSpace=wrap;html=1;fontSize=15;" vertex="1" parent="1">
                    <mxGeometry x="900" y="630" width="120" height="80" as="geometry"/>
                </mxCell>
                <mxCell id="20" value="Yes" style="text;html=1;align=center;verticalAlign=middle;resizable=0;points=[];autosize=1;strokeColor=none;fillColor=none;fontSize=15;fontColor=#00FF00;" vertex="1" parent="1">
                    <mxGeometry x="420" y="470" width="40" height="20" as="geometry"/>
                </mxCell>
                <mxCell id="21" value="No" style="text;html=1;align=center;verticalAlign=middle;resizable=0;points=[];autosize=1;strokeColor=none;fillColor=none;fontSize=15;fontColor=#FF0000;" vertex="1" parent="1">
                    <mxGeometry x="555" y="360" width="30" height="20" as="geometry"/>
                </mxCell>
                <mxCell id="28" style="edgeStyle=none;html=1;exitX=1;exitY=0.5;exitDx=0;exitDy=0;entryX=0;entryY=0.5;entryDx=0;entryDy=0;fontSize=15;strokeColor=#00FF00;" edge="1" parent="1" source="23" target="7">
                    <mxGeometry relative="1" as="geometry"/>
                </mxCell>
                <mxCell id="23" value="尝试编写源代码" style="rounded=1;whiteSpace=wrap;html=1;fontSize=15;strokeColor=#6600CC;" vertex="1" parent="1">
                    <mxGeometry x="270" y="640" width="120" height="60" as="geometry"/>
                </mxCell>
                <mxCell id="32" value="Yes" style="text;html=1;align=center;verticalAlign=middle;resizable=0;points=[];autosize=1;strokeColor=none;fillColor=none;fontSize=15;fontColor=#00FF00;" vertex="1" parent="1">
                    <mxGeometry x="110" y="620" width="40" height="20" as="geometry"/>
                </mxCell>
                <mxCell id="33" value="No" style="text;html=1;align=center;verticalAlign=middle;resizable=0;points=[];autosize=1;strokeColor=none;fillColor=none;fontSize=15;fontColor=#FF0000;" vertex="1" parent="1">
                    <mxGeometry x="115" y="450" width="30" height="20" as="geometry"/>
                </mxCell>
                <mxCell id="34" value="No" style="text;html=1;align=center;verticalAlign=middle;resizable=0;points=[];autosize=1;strokeColor=none;fillColor=none;fontSize=15;fontColor=#FF0000;" vertex="1" parent="1">
                    <mxGeometry x="555" y="570" width="30" height="20" as="geometry"/>
                </mxCell>
                <mxCell id="35" value="Yes" style="text;html=1;align=center;verticalAlign=middle;resizable=0;points=[];autosize=1;strokeColor=none;fillColor=none;fontSize=15;fontColor=#00FF00;" vertex="1" parent="1">
                    <mxGeometry x="640" y="650" width="40" height="20" as="geometry"/>
                </mxCell>
                <mxCell id="36" value="&lt;font color=&quot;#fcfffa&quot; style=&quot;font-size: 21px&quot;&gt;由浅入深，勿跳步骤，脚踏实地，实践出真知！&lt;/font&gt;" style="text;html=1;align=center;verticalAlign=middle;resizable=0;points=[];autosize=1;strokeColor=none;fillColor=none;fontSize=15;fontColor=#FF0000;" vertex="1" parent="1">
                    <mxGeometry x="100" y="25" width="460" height="30" as="geometry"/>
                </mxCell>
            </root>
        </mxGraphModel>
    </diagram>
</mxfile>